<svg width="28" height="28" viewBox="0 0 28 28" fill="none" xmlns="http://www.w3.org/2000/svg">
<path d="M14.0001 10.355C11.9931 10.355 10.3552 11.9929 10.3552 14C10.3552 16.007 11.9931 17.6449 14.0001 17.6449C16.0072 17.6449 17.6451 16.007 17.6451 14C17.6451 11.9929 16.0072 10.355 14.0001 10.355ZM24.9322 14C24.9322 12.4906 24.9458 10.9949 24.8611 9.48825C24.7763 7.73825 24.3771 6.18512 23.0974 4.90543C21.815 3.62301 20.2646 3.22653 18.5146 3.14176C17.0052 3.057 15.5095 3.07067 14.0029 3.07067C12.4935 3.07067 10.9978 3.057 9.49115 3.14176C7.74115 3.22653 6.18802 3.62575 4.90833 4.90543C3.62591 6.18786 3.22943 7.73825 3.14466 9.48825C3.0599 10.9976 3.07357 12.4933 3.07357 14C3.07357 15.5066 3.0599 17.005 3.14466 18.5117C3.22943 20.2617 3.62865 21.8148 4.90833 23.0945C6.19075 24.3769 7.74115 24.7734 9.49115 24.8582C11.0005 24.9429 12.4962 24.9293 14.0029 24.9293C15.5122 24.9293 17.0079 24.9429 18.5146 24.8582C20.2646 24.7734 21.8177 24.3742 23.0974 23.0945C24.3798 21.8121 24.7763 20.2617 24.8611 18.5117C24.9486 17.005 24.9322 15.5093 24.9322 14ZM14.0001 19.6082C10.8966 19.6082 8.39193 17.1035 8.39193 14C8.39193 10.8964 10.8966 8.39176 14.0001 8.39176C17.1036 8.39176 19.6083 10.8964 19.6083 14C19.6083 17.1035 17.1036 19.6082 14.0001 19.6082ZM19.838 9.47184C19.1134 9.47184 18.5283 8.88668 18.5283 8.16207C18.5283 7.43746 19.1134 6.85231 19.838 6.85231C20.5626 6.85231 21.1478 7.43746 21.1478 8.16207C21.148 8.33414 21.1143 8.50455 21.0485 8.66356C20.9828 8.82256 20.8863 8.96703 20.7646 9.0887C20.643 9.21037 20.4985 9.30683 20.3395 9.37258C20.1805 9.43833 20.0101 9.47206 19.838 9.47184Z" fill="url(#paint0_linear)"/>
<defs>
<linearGradient id="paint0_linear" x1="14.0031" y1="3.06985" x2="14.0031" y2="24.9301" gradientUnits="userSpaceOnUse">
<stop stop-color="#405DE6"/>
<stop offset="0.510417" stop-color="#FD1D1D" stop-opacity="0.74"/>
<stop offset="1" stop-color="#FCAC1D" stop-opacity="0.72"/>
</linearGradient>
</defs>
</svg>
